<svg xmlns="http://www.w3.org/2000/svg" viewBox="0 0 611.997 611.997" style="enable-background:new 0 0 611.997 611.997" xml:space="preserve"><g fill="#fff"><path fill-rule="evenodd" d="M369.886 431.217c-.804 13.171-6.933 23.791-18.319 31.841-11.354 8.037-25.922 11.532-43.686 10.518l-1.135 19.301-19.524-2.526 1.084-18.555c-8.356-1.135-17.917-3.387-28.716-6.755-10.754-3.355-19.09-6.914-25.035-10.652l1.862-33.461 4.982.6c6.563 4.65 14.217 8.655 22.956 12.036 8.745 3.387 17.509 5.97 26.273 7.743l1.85-31.694-10.741-3.827c-6.767-2.43-12.967-5.052-18.606-7.884-5.638-2.819-10.422-6.244-14.37-10.263-3.948-3.999-6.927-8.738-8.911-14.186-2.009-5.447-2.8-11.972-2.379-19.594.638-11.462 6.219-20.749 16.769-27.848 10.575-7.131 24.952-10.62 43.143-10.448l1.033-17.879 19.716 2.003-1.04 17.694c6.952 1.04 15.072 2.915 24.365 5.619 9.319 2.717 16.635 5.492 21.929 8.349l-2.06 33.869-5.033-.568c-5.224-3.802-11.36-7.157-18.389-10.046-7.016-2.877-14.549-5.033-22.618-6.468l-1.748 29.634 8.955 2.896c16.928 5.364 29.27 12.017 36.976 19.926 7.712 7.937 11.188 18.156 10.417 30.625zm-47.162-11.194c-3.91-2.679-7.839-4.573-11.8-5.67l-1.69 28.754c5.001-.083 9.344-1.046 13.018-2.902 3.693-1.843 5.67-4.982 5.932-9.402.274-4.491-1.55-8.088-5.46-10.78zm-45.3-62.68c-.204 3.642.906 6.602 3.33 8.904 2.43 2.296 7.45 4.618 15.091 6.959l1.569-27c-4.975-.147-9.497.663-13.56 2.449-4.057 1.767-6.194 4.669-6.43 8.688z"/><path stroke="#000" stroke-width="10" d="M254.258 141.568c106.238-12.814 152.864 19.001 152.864 19.001 6.767-18.083 36.58-48.871 36.58-48.871 61.66-55.894 29.309-82.811 29.309-82.811C441.623 1.448 382.757 0 382.757 0l-36.803 69.059 11.953-61.864c-46.754-.491-76.509 9.957-76.509 9.957l-7.099 70.341-11.29-79.94c-41.708 6.557-39.061 36.74-39.061 36.74-4.439 28.178 30.31 97.275 30.31 97.275zm23.166 215.775c-.204 3.642.906 6.602 3.33 8.904 2.43 2.296 7.45 4.618 15.091 6.959l1.569-27c-4.975-.147-9.497.663-13.56 2.449-4.057 1.767-6.194 4.669-6.43 8.688zm45.3 62.68c-3.91-2.679-7.839-4.573-11.8-5.67l-1.69 28.754c5.001-.083 9.344-1.046 13.018-2.902 3.693-1.843 5.67-4.982 5.932-9.402.274-4.491-1.55-8.088-5.46-10.78z"/><path stroke="#000" stroke-width="10" d="M395.89 189.017s-52.979-26.222-163.204-12.502c0 0-74.398 23.683-108.394 135.745 0 0 4.65 71.062 40.318 102.743 0 0-49.024-18.65-52.513-60.25 0 0-27.937 103.304 6.997 176.165 0 0 62.464 115.978 245.645 70.513 0 0 60.697-11.896 79.456-83.582 0 0 12.801 55.23-19.843 75.775 0 0 74.78-6.761 83.723-91.549-.008.006 28.707-244.516-112.185-313.058zm-26.004 242.2c-.804 13.171-6.933 23.791-18.319 31.841-11.354 8.037-25.922 11.532-43.686 10.518l-1.135 19.301-19.524-2.526 1.084-18.555c-8.356-1.135-17.917-3.387-28.716-6.755-10.754-3.355-19.09-6.914-25.035-10.652l1.862-33.461 4.982.6c6.563 4.65 14.217 8.655 22.956 12.036 8.745 3.387 17.509 5.97 26.273 7.743l1.85-31.694-10.741-3.827c-6.767-2.43-12.967-5.052-18.606-7.884-5.638-2.819-10.422-6.244-14.37-10.263-3.948-3.999-6.927-8.738-8.911-14.186-2.009-5.447-2.8-11.972-2.379-19.594.638-11.462 6.219-20.749 16.769-27.848 10.575-7.131 24.952-10.62 43.143-10.448l1.033-17.879 19.716 2.003-1.04 17.694c6.952 1.04 15.072 2.915 24.365 5.619 9.319 2.717 16.635 5.492 21.929 8.349l-2.06 33.869-5.033-.568c-5.224-3.802-11.36-7.157-18.389-10.046-7.016-2.877-14.549-5.033-22.618-6.468l-1.748 29.634 8.955 2.896c16.928 5.364 29.27 12.017 36.976 19.926 7.712 7.937 11.188 18.156 10.417 30.625z"/></g></svg>